<svg width="134.369141" height="56.000000" viewBox="0 0 134.369 56" fill="none" xmlns="http://www.w3.org/2000/svg" xmlns:xlink="http://www.w3.org/1999/xlink">
	<desc>
			Created with Pixso.
	</desc>
	<defs>
		<filter id="filter_333_1359_dd" x="0.000000" y="0.000000" width="134.369141" height="56.000000" filterUnits="userSpaceOnUse" color-interpolation-filters="sRGB">
			<feFlood flood-opacity="0" result="BackgroundImageFix"/>
			<feColorMatrix in="SourceAlpha" type="matrix" values="0 0 0 0 0 0 0 0 0 0 0 0 0 0 0 0 0 0 127 0" result="hardAlpha"/>
			<feOffset dx="0" dy="4"/>
			<feGaussianBlur stdDeviation="1.33333"/>
			<feComposite in2="hardAlpha" operator="out" k2="-1" k3="1"/>
			<feColorMatrix type="matrix" values="0 0 0 0 0 0 0 0 0 0 0 0 0 0 0 0 0 0 0.25 0"/>
			<feBlend mode="normal" in2="BackgroundImageFix" result="effect_dropShadow_1"/>
			<feBlend mode="normal" in="SourceGraphic" in2="effect_dropShadow_1" result="shape"/>
		</filter>
		<clipPath id="clip333_1359">
			<rect id="Company logo" width="126.369431" height="48.000000" transform="translate(4.000000 0.000000)" fill="white" fill-opacity="0"/>
		</clipPath>
	</defs>
	<g filter="url(#filter_333_1359_dd)" style="mix-blend-mode:luminosity">
		<rect id="Company logo" width="126.369431" height="48.000000" transform="translate(4.000000 0.000000)" fill="#FFFFFF" fill-opacity="0"/>
		<g clip-path="url(#clip333_1359)">
			<path id="Vector" d="M129.57 30.56C124.31 38.46 115.99 36.16 113.49 34.37C112.43 35.01 110.56 36.41 108.07 36.25C102.77 35.91 100.88 29.2 100.88 29.2C100.92 29.22 99.3 29.69 98.43 29.68C98.41 31.65 96.5 36.35 91.32 36.29C85.5 36.22 84.32 28.55 84.32 28.55C84.32 28.55 83.75 29.26 81.55 29.97C81.66 28.46 81.58 36.06 74.61 36.17C69.1 36.26 67.62 28.43 67.62 28.43C67.62 28.43 66.66 29.31 64.81 29.61C64.93 28.08 64.74 36.2 57.77 36.17C53.06 36.15 51.45 31.35 51.58 30.68C51.74 29.83 49.99 36.29 45.41 36.19C43.52 36.14 42.12 34.93 41.24 33.32C40.05 34.51 38.34 36.19 36.41 36.19C32.96 36.19 31.43 33.63 31.69 26.31C31.71 25.45 31.64 25.1 30.67 24.97C30.09 24.89 29.49 24.72 28.85 24.64C28.65 25.24 26.93 36 21.01 36.2C19.03 36.27 17.94 34.74 17.05 33.61C15.69 35.21 13.88 36.25 11.31 36.25C6.96 36.25 4 33.13 4 29.28C4 25.44 6.96 22.32 11.31 22.32C12.08 22.32 12.3 22.42 13 22.6C11.56 10.93 14.97 9.11 17.96 9.11C20.83 9.11 25.72 15.01 18.83 29.97C20.36 34.43 23.66 34.18 25.25 24.99C25.57 23.13 24.71 20.61 26.05 20.25C28.5 19.61 28.76 21.54 29.91 21.86C31.13 22.2 31.84 22.17 33.01 22.38C35 22.73 35.78 23.68 35.54 25.79C35.25 28.47 34.73 32.37 36.29 32.84C37.41 33.19 39.46 31.12 39.82 30C40.18 28.87 40.26 28.48 40.29 27.65C40.34 25.88 40.4 24.58 40.74 23.25C40.89 22.73 41.05 22.38 41.71 22.36C42.26 22.35 43.25 22.2 43.69 22.51C44.27 22.89 44.2 23.29 44.14 24.33C43.46 39.13 48.68 31.74 50.24 25.82C49.68 19.13 50.07 9.23 54.8 9.06C57.26 8.98 58.34 10.73 58.47 12.03C58.8 15.71 56.91 21.81 54.41 25.91C52.99 34.29 60.64 35.94 61.87 29.26C59.87 28.42 57.7 25 59.46 23.33C60.45 22.4 64.57 23.74 64.63 26.67C66.65 26.19 66.92 25.18 66.95 25.35C66.39 18.66 66.91 9.23 71.64 9.06C74.1 8.98 75.19 10.73 75.31 12.03C75.64 15.71 73.75 21.81 71.25 25.91C69.83 34.29 77.49 35.94 78.71 29.26C77.23 29.01 74.1 25.37 75.9 23.33C76.87 22.25 80.97 24.51 81.42 26.77C83.36 26.28 83.63 25.3 83.66 25.47C83.1 18.78 83.61 9.35 88.34 9.18C90.81 9.1 91.89 10.84 92.01 12.15C92.35 15.83 90.46 21.93 87.96 26.03C86.54 34.4 94.19 36.06 95.42 29.38C93.38 29.08 90.48 25.24 92.81 23.28C93.75 22.49 97.3 24.53 98.14 26.85C99.29 26.81 100.01 26.46 100.17 26.42C98.32 18.57 99.7 9.14 104.78 9.06C107.54 9.02 110.23 10.38 109.04 17.86C107.92 24.99 103.87 27.98 103.88 28.02C104.11 28.88 106.19 36.03 111.43 32.25C111.15 31.71 110.88 31.16 110.73 30.48C109.86 26.56 111.57 22.14 116.2 21.42C118.85 21.01 121.35 22.15 121.75 24.74C122.4 28.96 118.09 32.02 116.46 32.68C115.72 32.31 123.1 36.51 127.48 28.1C127.73 27.62 128.04 27.66 128.43 27.91C128.71 28.09 130.31 29.42 129.57 30.56ZM14.48 28.25C14.26 27.66 13.8 26.36 13.64 25.79C12.75 25.11 12.11 25 10.97 25C8.43 25 6.93 27.08 6.93 29.32C6.93 31.56 8.56 33.64 11.1 33.64C13.3 33.64 14.98 32.32 15.49 30.44C15.13 29.71 14.78 29.04 14.48 28.25ZM17.9 12.2C16.11 12.2 15.5 15.97 15.62 19.19C15.73 22.03 16.62 24.54 17.09 25.66C17.21 25.8 17.19 25.71 17.29 25.86C20.39 19.84 19.1 12.2 17.9 12.2ZM55.05 12.31C52.75 12.08 52.76 20.6 53.05 22.51C54.25 20.81 56.33 12.77 55.05 12.31ZM71.89 12.31C69.59 12.08 69.6 20.6 69.89 22.51C71.08 20.81 73.17 12.77 71.89 12.31ZM88.6 12.43C86.29 12.2 86.31 20.71 86.59 22.62C87.79 20.93 89.87 12.89 88.6 12.43ZM105.04 11.82C101.45 12.46 102.28 23.07 102.83 24.94C107.06 19.78 107.15 11.62 105.04 11.82ZM118.51 25.09C118.32 24.41 117.41 24.05 116.78 24.14C114.98 24.35 113.23 26.35 113.9 29.38C114.05 30.05 114.43 30.67 114.43 30.65C118.46 28.25 118.81 26.36 118.51 25.09ZM42.42 20.02C41.91 20.02 41.4 19.88 40.97 19.63C40.54 19.37 40.21 19.01 40.01 18.59C39.82 18.17 39.76 17.7 39.86 17.26C39.96 16.81 40.21 16.4 40.58 16.07C40.94 15.75 41.41 15.53 41.91 15.44C42.42 15.35 42.94 15.4 43.42 15.57C43.9 15.75 44.3 16.04 44.59 16.42C44.87 16.8 45.03 17.25 45.03 17.71C45.03 18.01 44.96 18.31 44.83 18.59C44.7 18.87 44.51 19.13 44.26 19.34C44.02 19.55 43.74 19.73 43.42 19.84C43.1 19.96 42.76 20.02 42.42 20.02Z" fill="#0D0C22" fill-opacity="1.000000" fill-rule="evenodd"/>
		</g>
	</g>
</svg>
